<svg width="732" height="184" viewBox="0 0 732 184" fill="none" xmlns="http://www.w3.org/2000/svg">
<path d="M0 88.32C0 46.6855 0 25.8683 12.9342 12.9342C25.8683 0 46.6855 0 88.32 0H95.68C137.314 0 158.132 0 171.066 12.9342C184 25.8683 184 46.6855 184 88.32V95.68C184 137.314 184 158.132 171.066 171.066C158.132 184 137.314 184 95.68 184H88.32C46.6855 184 25.8683 184 12.9342 171.066C0 158.132 0 137.314 0 95.68V88.32Z" fill="#0077FF"/>
<mask id="mask0_156_1009" style="mask-type:alpha" maskUnits="userSpaceOnUse" x="0" y="0" width="184" height="184">
<path d="M0 88.32C0 46.6855 0 25.8683 12.9342 12.9342C25.8683 0 46.6855 0 88.32 0H95.68C137.314 0 158.132 0 171.066 12.9342C184 25.8683 184 46.6855 184 88.32V95.68C184 137.314 184 158.132 171.066 171.066C158.132 184 137.314 184 95.68 184H88.32C46.6855 184 25.8683 184 12.9342 171.066C0 158.132 0 137.314 0 95.68V88.32Z" fill="#5CBFE2"/>
</mask>
<g mask="url(#mask0_156_1009)">
<path d="M157.848 84.7857L73.1042 0.0231934H-0.368164V184.037H74.0598L157.848 100.23C162.112 95.9655 162.112 89.0503 157.848 84.7857Z" fill="#5CBFE2"/>
<path d="M95.9388 38.2966C100.203 34.0318 107.115 34.0318 111.378 38.2966L157.848 84.7855C162.112 89.0502 162.112 95.9653 157.848 100.23L111.378 146.719C107.115 150.983 100.203 150.983 95.9388 146.719C91.6756 142.454 91.6756 135.539 95.9388 131.274L123.772 103.429H-0.0228567C-6.05295 103.43 -11.1781 98.5557 -11.1779 92.5248C-11.1769 86.4947 -6.05295 81.5878 -0.0228567 81.5868H123.772L95.9388 53.7411C91.6756 49.4765 91.6756 42.5614 95.9388 38.2966Z" fill="white"/>
</g>
<path d="M294.552 140L327.448 49.76H311.192L284.824 124.128H282.264L256.792 49.76H240.28L272.152 140H294.552ZM370.094 93.28L408.366 49.76H389.422L357.422 86.496H353.71V49.76H338.35V140H353.71V101.344H357.55L391.342 140H411.566L370.094 93.28ZM463.076 140V68.32H465.124L504.548 140H527.716V49.76H512.74V121.44H510.692L471.268 49.76H448.1V140H463.076ZM610.975 105.952C610.975 86.752 596.639 72.16 576.415 72.16C556.191 72.16 541.855 86.624 541.855 106.72C541.855 126.816 556.191 141.28 576.415 141.28C590.239 141.28 603.295 134.752 608.287 122.08L594.463 119.776C591.263 124.512 585.119 127.84 577.311 127.84C566.047 127.84 558.623 120.928 557.215 110.688H610.719C610.847 109.28 610.975 107.744 610.975 105.952ZM576.415 84.96C585.631 84.96 592.543 90.848 594.975 99.168H558.111C560.543 90.592 567.455 84.96 576.415 84.96ZM629.899 140L645.131 114.784H647.563L661.771 140H678.923L657.803 105.056L676.491 73.44H660.235L647.179 95.84H644.747L632.331 73.44H615.691L634.379 105.952L613.259 140H629.899ZM714.804 127.2C709.812 127.2 707.38 124.768 707.38 119.776V86.24H727.22V73.44H707.38V54.24H696.372L692.66 73.44H681.78V86.24H692.66V119.776C692.66 132.832 700.212 140 714.804 140H727.22L728.5 127.2H714.804Z" fill="black"/>
</svg>
